<mxfile host="Electron" agent="Mozilla/5.0 (Windows NT 10.0; Win64; x64) AppleWebKit/537.36 (KHTML, like Gecko) draw.io/28.0.6 Chrome/138.0.7204.100 Electron/37.2.3 Safari/537.36" version="28.0.6">
  <diagram name="Page-1" id="p9SgZGYy411-d-FbT1tG">
    <mxGraphModel dx="4303" dy="2031" grid="1" gridSize="10" guides="1" tooltips="1" connect="1" arrows="1" fold="1" page="1" pageScale="1" pageWidth="850" pageHeight="1100" math="0" shadow="0">
      <root>
        <mxCell id="0" />
        <mxCell id="1" parent="0" />
        <mxCell id="Z7bshn5V9QT-2ZummmTz-3" value="" style="edgeStyle=orthogonalEdgeStyle;rounded=1;orthogonalLoop=1;jettySize=auto;html=1;labelBackgroundColor=none;fontColor=default;strokeColor=#A8201A;" edge="1" parent="1" source="Z7bshn5V9QT-2ZummmTz-114" target="Z7bshn5V9QT-2ZummmTz-2">
          <mxGeometry relative="1" as="geometry">
            <Array as="points">
              <mxPoint x="190" y="500" />
              <mxPoint x="190" y="500" />
            </Array>
          </mxGeometry>
        </mxCell>
        <mxCell id="Z7bshn5V9QT-2ZummmTz-1" value="IDLE&lt;div&gt;S1&lt;/div&gt;" style="rounded=1;whiteSpace=wrap;html=1;labelBackgroundColor=none;fontStyle=1;fillColor=#FAE5C7;strokeColor=#0F8B8D;fontColor=#143642;" vertex="1" parent="1">
          <mxGeometry x="-70" y="380" width="120" height="60" as="geometry" />
        </mxCell>
        <mxCell id="Z7bshn5V9QT-2ZummmTz-5" value="" style="edgeStyle=orthogonalEdgeStyle;rounded=1;orthogonalLoop=1;jettySize=auto;html=1;labelBackgroundColor=none;fontColor=default;strokeColor=#A8201A;" edge="1" parent="1" source="Z7bshn5V9QT-2ZummmTz-59" target="Z7bshn5V9QT-2ZummmTz-4">
          <mxGeometry relative="1" as="geometry" />
        </mxCell>
        <mxCell id="Z7bshn5V9QT-2ZummmTz-18" value="" style="edgeStyle=orthogonalEdgeStyle;rounded=1;orthogonalLoop=1;jettySize=auto;html=1;labelBackgroundColor=none;fontColor=default;strokeColor=#A8201A;" edge="1" parent="1" source="Z7bshn5V9QT-2ZummmTz-108" target="Z7bshn5V9QT-2ZummmTz-17">
          <mxGeometry relative="1" as="geometry">
            <Array as="points">
              <mxPoint x="560" y="410" />
              <mxPoint x="560" y="410" />
            </Array>
          </mxGeometry>
        </mxCell>
        <mxCell id="Z7bshn5V9QT-2ZummmTz-2" value="WAITING_FOR_AUTH&lt;div&gt;S2&lt;/div&gt;" style="rounded=1;whiteSpace=wrap;html=1;labelBackgroundColor=none;fontStyle=1;fillColor=#FAE5C7;strokeColor=#0F8B8D;fontColor=#143642;" vertex="1" parent="1">
          <mxGeometry x="170" y="520" width="150" height="60" as="geometry" />
        </mxCell>
        <mxCell id="Z7bshn5V9QT-2ZummmTz-7" value="" style="edgeStyle=orthogonalEdgeStyle;rounded=1;orthogonalLoop=1;jettySize=auto;html=1;labelBackgroundColor=none;fontColor=default;strokeColor=#A8201A;" edge="1" parent="1" source="Z7bshn5V9QT-2ZummmTz-71" target="Z7bshn5V9QT-2ZummmTz-6">
          <mxGeometry relative="1" as="geometry" />
        </mxCell>
        <mxCell id="Z7bshn5V9QT-2ZummmTz-4" value="AUTH_SUCCESS&lt;div&gt;S3&lt;/div&gt;" style="rounded=1;whiteSpace=wrap;html=1;labelBackgroundColor=none;fontStyle=1;fillColor=#FAE5C7;strokeColor=#0F8B8D;fontColor=#143642;" vertex="1" parent="1">
          <mxGeometry x="425" y="800" width="150" height="60" as="geometry" />
        </mxCell>
        <mxCell id="Z7bshn5V9QT-2ZummmTz-9" value="" style="edgeStyle=orthogonalEdgeStyle;rounded=1;orthogonalLoop=1;jettySize=auto;html=1;labelBackgroundColor=none;fontColor=default;strokeColor=#A8201A;" edge="1" parent="1" source="Z7bshn5V9QT-2ZummmTz-77" target="Z7bshn5V9QT-2ZummmTz-8">
          <mxGeometry relative="1" as="geometry" />
        </mxCell>
        <mxCell id="Z7bshn5V9QT-2ZummmTz-131" style="edgeStyle=orthogonalEdgeStyle;rounded=0;orthogonalLoop=1;jettySize=auto;html=1;entryX=0.5;entryY=0;entryDx=0;entryDy=0;strokeColor=#A8201A;fontColor=#143642;fillColor=#FAE5C7;" edge="1" parent="1" source="Z7bshn5V9QT-2ZummmTz-6" target="Z7bshn5V9QT-2ZummmTz-129">
          <mxGeometry relative="1" as="geometry" />
        </mxCell>
        <mxCell id="Z7bshn5V9QT-2ZummmTz-6" value="SELECTION_IN_PROGRESS&lt;div&gt;S4&lt;/div&gt;" style="rounded=1;whiteSpace=wrap;html=1;labelBackgroundColor=none;fontStyle=1;fillColor=#FAE5C7;strokeColor=#0F8B8D;fontColor=#143642;" vertex="1" parent="1">
          <mxGeometry x="395" y="1060" width="190" height="50" as="geometry" />
        </mxCell>
        <mxCell id="Z7bshn5V9QT-2ZummmTz-11" value="" style="edgeStyle=orthogonalEdgeStyle;rounded=1;orthogonalLoop=1;jettySize=auto;html=1;labelBackgroundColor=none;fontColor=default;strokeColor=#A8201A;" edge="1" parent="1" source="Z7bshn5V9QT-2ZummmTz-83" target="Z7bshn5V9QT-2ZummmTz-10">
          <mxGeometry relative="1" as="geometry" />
        </mxCell>
        <mxCell id="Z7bshn5V9QT-2ZummmTz-141" style="edgeStyle=orthogonalEdgeStyle;rounded=0;orthogonalLoop=1;jettySize=auto;html=1;exitX=0.75;exitY=1;exitDx=0;exitDy=0;entryX=-0.021;entryY=0.039;entryDx=0;entryDy=0;strokeColor=#A8201A;fontColor=#143642;fillColor=#FAE5C7;entryPerimeter=0;" edge="1" parent="1" source="Z7bshn5V9QT-2ZummmTz-8" target="Z7bshn5V9QT-2ZummmTz-140">
          <mxGeometry relative="1" as="geometry">
            <Array as="points">
              <mxPoint x="542" y="1460" />
              <mxPoint x="580" y="1460" />
              <mxPoint x="580" y="1521" />
            </Array>
          </mxGeometry>
        </mxCell>
        <mxCell id="Z7bshn5V9QT-2ZummmTz-8" value="SELECTION_REQUESTED&lt;div&gt;S5&lt;/div&gt;" style="rounded=1;whiteSpace=wrap;html=1;labelBackgroundColor=none;fontStyle=1;fillColor=#FAE5C7;strokeColor=#0F8B8D;fontColor=#143642;" vertex="1" parent="1">
          <mxGeometry x="400" y="1360" width="190" height="50" as="geometry" />
        </mxCell>
        <mxCell id="Z7bshn5V9QT-2ZummmTz-13" value="" style="edgeStyle=orthogonalEdgeStyle;rounded=1;orthogonalLoop=1;jettySize=auto;html=1;labelBackgroundColor=none;fontColor=default;strokeColor=#A8201A;" edge="1" parent="1" source="Z7bshn5V9QT-2ZummmTz-89" target="Z7bshn5V9QT-2ZummmTz-12">
          <mxGeometry relative="1" as="geometry" />
        </mxCell>
        <mxCell id="Z7bshn5V9QT-2ZummmTz-10" value="COMMAND_IN_PROGRESS&lt;div&gt;S6&lt;/div&gt;" style="rounded=1;whiteSpace=wrap;html=1;labelBackgroundColor=none;fontStyle=1;fillColor=#FAE5C7;strokeColor=#0F8B8D;fontColor=#143642;" vertex="1" parent="1">
          <mxGeometry x="390" y="1660" width="190" height="50" as="geometry" />
        </mxCell>
        <mxCell id="Z7bshn5V9QT-2ZummmTz-12" value="COMMAND_DONE&lt;div&gt;S7&lt;/div&gt;" style="rounded=1;whiteSpace=wrap;html=1;labelBackgroundColor=none;fontStyle=1;fillColor=#FAE5C7;strokeColor=#0F8B8D;fontColor=#143642;" vertex="1" parent="1">
          <mxGeometry x="375" y="2030" width="190" height="50" as="geometry" />
        </mxCell>
        <mxCell id="Z7bshn5V9QT-2ZummmTz-19" style="edgeStyle=orthogonalEdgeStyle;rounded=1;orthogonalLoop=1;jettySize=auto;html=1;entryX=0.865;entryY=-0.018;entryDx=0;entryDy=0;labelBackgroundColor=none;fontColor=default;entryPerimeter=0;strokeColor=#A8201A;" edge="1" parent="1" source="Z7bshn5V9QT-2ZummmTz-101" target="Z7bshn5V9QT-2ZummmTz-2">
          <mxGeometry relative="1" as="geometry">
            <Array as="points">
              <mxPoint x="300" y="330" />
            </Array>
          </mxGeometry>
        </mxCell>
        <mxCell id="Z7bshn5V9QT-2ZummmTz-35" value="" style="edgeStyle=orthogonalEdgeStyle;rounded=1;orthogonalLoop=1;jettySize=auto;html=1;labelBackgroundColor=none;strokeColor=#A8201A;fontColor=default;" edge="1" parent="1" source="Z7bshn5V9QT-2ZummmTz-95" target="Z7bshn5V9QT-2ZummmTz-34">
          <mxGeometry relative="1" as="geometry" />
        </mxCell>
        <mxCell id="Z7bshn5V9QT-2ZummmTz-126" style="edgeStyle=orthogonalEdgeStyle;rounded=1;orthogonalLoop=1;jettySize=auto;html=1;exitX=0.5;exitY=0;exitDx=0;exitDy=0;entryX=1;entryY=0.25;entryDx=0;entryDy=0;labelBackgroundColor=none;strokeColor=#A8201A;fontColor=default;" edge="1" parent="1" source="Z7bshn5V9QT-2ZummmTz-17" target="Z7bshn5V9QT-2ZummmTz-101">
          <mxGeometry relative="1" as="geometry" />
        </mxCell>
        <mxCell id="Z7bshn5V9QT-2ZummmTz-17" value="AUTH_FAILED&lt;div&gt;S8&lt;/div&gt;" style="rounded=1;whiteSpace=wrap;html=1;labelBackgroundColor=none;fontStyle=1;fillColor=#FAE5C7;strokeColor=#0F8B8D;fontColor=#143642;" vertex="1" parent="1">
          <mxGeometry x="630" y="380" width="150" height="60" as="geometry" />
        </mxCell>
        <mxCell id="Z7bshn5V9QT-2ZummmTz-32" style="edgeStyle=orthogonalEdgeStyle;rounded=1;orthogonalLoop=1;jettySize=auto;html=1;entryX=0.441;entryY=0;entryDx=0;entryDy=0;entryPerimeter=0;labelBackgroundColor=none;strokeColor=#A8201A;fontColor=default;" edge="1" parent="1" source="Z7bshn5V9QT-2ZummmTz-47" target="Z7bshn5V9QT-2ZummmTz-1">
          <mxGeometry relative="1" as="geometry">
            <Array as="points">
              <mxPoint x="-17" y="270" />
            </Array>
          </mxGeometry>
        </mxCell>
        <mxCell id="Z7bshn5V9QT-2ZummmTz-36" style="edgeStyle=orthogonalEdgeStyle;rounded=1;orthogonalLoop=1;jettySize=auto;html=1;entryX=0.25;entryY=0;entryDx=0;entryDy=0;labelBackgroundColor=none;strokeColor=#A8201A;fontColor=default;" edge="1" parent="1" source="Z7bshn5V9QT-2ZummmTz-65" target="Z7bshn5V9QT-2ZummmTz-1">
          <mxGeometry relative="1" as="geometry">
            <Array as="points">
              <mxPoint x="-40" y="90" />
            </Array>
          </mxGeometry>
        </mxCell>
        <mxCell id="Z7bshn5V9QT-2ZummmTz-34" value="LOCKED&lt;div&gt;S9&lt;/div&gt;" style="rounded=1;whiteSpace=wrap;html=1;labelBackgroundColor=none;fontStyle=1;fillColor=#FAE5C7;strokeColor=#0F8B8D;fontColor=#143642;" vertex="1" parent="1">
          <mxGeometry x="630" y="625" width="150" height="60" as="geometry" />
        </mxCell>
        <mxCell id="Z7bshn5V9QT-2ZummmTz-40" value="" style="edgeStyle=orthogonalEdgeStyle;rounded=1;orthogonalLoop=1;jettySize=auto;html=1;labelBackgroundColor=none;strokeColor=#A8201A;fontColor=default;" edge="1" parent="1" source="Z7bshn5V9QT-2ZummmTz-39" target="Z7bshn5V9QT-2ZummmTz-1">
          <mxGeometry relative="1" as="geometry" />
        </mxCell>
        <mxCell id="Z7bshn5V9QT-2ZummmTz-39" value="Start" style="triangle;whiteSpace=wrap;html=1;fillColor=#FAE5C7;strokeColor=#0F8B8D;rounded=1;labelBackgroundColor=none;fontColor=#143642;" vertex="1" parent="1">
          <mxGeometry x="-300" y="370" width="60" height="80" as="geometry" />
        </mxCell>
        <mxCell id="Z7bshn5V9QT-2ZummmTz-47" value="CS10 - Cancel Wakeup" style="swimlane;fontStyle=0;childLayout=stackLayout;horizontal=1;startSize=30;horizontalStack=0;resizeParent=1;resizeParentMax=0;resizeLast=0;collapsible=1;marginBottom=0;whiteSpace=wrap;html=1;fillColor=#FAE5C7;strokeColor=#0F8B8D;swimlaneFillColor=default;rounded=1;labelBackgroundColor=none;fontColor=#143642;" vertex="1" parent="1">
          <mxGeometry x="140" y="230" width="140" height="90" as="geometry">
            <mxRectangle x="345" y="230" width="60" height="30" as="alternateBounds" />
          </mxGeometry>
        </mxCell>
        <mxCell id="Z7bshn5V9QT-2ZummmTz-48" value="Abort button is pressed" style="text;strokeColor=none;fillColor=none;align=left;verticalAlign=middle;spacingLeft=4;spacingRight=4;overflow=hidden;points=[[0,0.5],[1,0.5]];portConstraint=eastwest;rotatable=0;whiteSpace=wrap;html=1;rounded=1;labelBackgroundColor=none;fontColor=#143642;" vertex="1" parent="Z7bshn5V9QT-2ZummmTz-47">
          <mxGeometry y="30" width="140" height="30" as="geometry" />
        </mxCell>
        <mxCell id="Z7bshn5V9QT-2ZummmTz-49" value="Fingerprint timeout" style="text;strokeColor=none;fillColor=none;align=left;verticalAlign=middle;spacingLeft=4;spacingRight=4;overflow=hidden;points=[[0,0.5],[1,0.5]];portConstraint=eastwest;rotatable=0;whiteSpace=wrap;html=1;rounded=1;labelBackgroundColor=none;fontColor=#143642;" vertex="1" parent="Z7bshn5V9QT-2ZummmTz-47">
          <mxGeometry y="60" width="140" height="30" as="geometry" />
        </mxCell>
        <mxCell id="Z7bshn5V9QT-2ZummmTz-57" value="" style="edgeStyle=orthogonalEdgeStyle;rounded=1;orthogonalLoop=1;jettySize=auto;html=1;labelBackgroundColor=none;fontColor=default;strokeColor=#A8201A;" edge="1" parent="1" source="Z7bshn5V9QT-2ZummmTz-2" target="Z7bshn5V9QT-2ZummmTz-59">
          <mxGeometry relative="1" as="geometry">
            <mxPoint x="475" y="440" as="sourcePoint" />
            <mxPoint x="475" y="520" as="targetPoint" />
            <Array as="points">
              <mxPoint x="495" y="560" />
            </Array>
          </mxGeometry>
        </mxCell>
        <mxCell id="Z7bshn5V9QT-2ZummmTz-59" value="&lt;span style=&quot;font-size: 11px; text-wrap-mode: nowrap;&quot;&gt;CS2 - Correct Authentication&lt;/span&gt;" style="swimlane;fontStyle=0;childLayout=stackLayout;horizontal=1;startSize=30;horizontalStack=0;resizeParent=1;resizeParentMax=0;resizeLast=0;collapsible=1;marginBottom=0;whiteSpace=wrap;html=1;swimlaneFillColor=default;fillColor=#FAE5C7;strokeColor=#0F8B8D;fontColor=#143642;rounded=1;labelBackgroundColor=none;" vertex="1" parent="1">
          <mxGeometry x="425" y="660" width="140" height="120" as="geometry">
            <mxRectangle x="445" y="460" width="60" height="30" as="alternateBounds" />
          </mxGeometry>
        </mxCell>
        <mxCell id="Z7bshn5V9QT-2ZummmTz-60" value="Fingerprint unlock" style="text;strokeColor=none;fillColor=none;align=left;verticalAlign=middle;spacingLeft=4;spacingRight=4;overflow=hidden;points=[[0,0.5],[1,0.5]];portConstraint=eastwest;rotatable=0;whiteSpace=wrap;html=1;rounded=1;labelBackgroundColor=none;fontColor=#143642;" vertex="1" parent="Z7bshn5V9QT-2ZummmTz-59">
          <mxGeometry y="30" width="140" height="30" as="geometry" />
        </mxCell>
        <mxCell id="Z7bshn5V9QT-2ZummmTz-61" value="Pin unlock" style="text;strokeColor=none;fillColor=none;align=left;verticalAlign=middle;spacingLeft=4;spacingRight=4;overflow=hidden;points=[[0,0.5],[1,0.5]];portConstraint=eastwest;rotatable=0;whiteSpace=wrap;html=1;rounded=1;labelBackgroundColor=none;fontColor=#143642;" vertex="1" parent="Z7bshn5V9QT-2ZummmTz-59">
          <mxGeometry y="60" width="140" height="30" as="geometry" />
        </mxCell>
        <mxCell id="Z7bshn5V9QT-2ZummmTz-62" value="Mobile app unlock" style="text;strokeColor=none;fillColor=none;align=left;verticalAlign=middle;spacingLeft=4;spacingRight=4;overflow=hidden;points=[[0,0.5],[1,0.5]];portConstraint=eastwest;rotatable=0;whiteSpace=wrap;html=1;rounded=1;labelBackgroundColor=none;fontColor=#143642;" vertex="1" parent="Z7bshn5V9QT-2ZummmTz-59">
          <mxGeometry y="90" width="140" height="30" as="geometry" />
        </mxCell>
        <mxCell id="Z7bshn5V9QT-2ZummmTz-63" value="" style="edgeStyle=orthogonalEdgeStyle;rounded=1;orthogonalLoop=1;jettySize=auto;html=1;entryX=1.006;entryY=0.033;entryDx=0;entryDy=0;entryPerimeter=0;labelBackgroundColor=none;strokeColor=#A8201A;fontColor=default;" edge="1" parent="1" source="Z7bshn5V9QT-2ZummmTz-34">
          <mxGeometry relative="1" as="geometry">
            <mxPoint x="780" y="550" as="sourcePoint" />
            <mxPoint x="485.84000000000015" y="90.99000000000001" as="targetPoint" />
            <Array as="points">
              <mxPoint x="800" y="650" />
              <mxPoint x="800" y="90" />
              <mxPoint x="486" y="90" />
            </Array>
          </mxGeometry>
        </mxCell>
        <mxCell id="Z7bshn5V9QT-2ZummmTz-65" value="CS12 - Mobile app Verification" style="swimlane;fontStyle=0;childLayout=stackLayout;horizontal=1;startSize=30;horizontalStack=0;resizeParent=1;resizeParentMax=0;resizeLast=0;collapsible=1;marginBottom=0;whiteSpace=wrap;html=1;fillColor=#FAE5C7;strokeColor=#0F8B8D;swimlaneFillColor=default;rounded=1;labelBackgroundColor=none;fontColor=#143642;" vertex="1" parent="1">
          <mxGeometry x="345" y="30" width="140" height="60" as="geometry">
            <mxRectangle x="425" y="80" width="60" height="30" as="alternateBounds" />
          </mxGeometry>
        </mxCell>
        <mxCell id="Z7bshn5V9QT-2ZummmTz-66" value="Mobile app verification" style="text;strokeColor=none;fillColor=none;align=left;verticalAlign=middle;spacingLeft=4;spacingRight=4;overflow=hidden;points=[[0,0.5],[1,0.5]];portConstraint=eastwest;rotatable=0;whiteSpace=wrap;html=1;rounded=1;labelBackgroundColor=none;fontColor=#143642;" vertex="1" parent="Z7bshn5V9QT-2ZummmTz-65">
          <mxGeometry y="30" width="140" height="30" as="geometry" />
        </mxCell>
        <mxCell id="Z7bshn5V9QT-2ZummmTz-69" value="" style="edgeStyle=orthogonalEdgeStyle;rounded=1;orthogonalLoop=1;jettySize=auto;html=1;labelBackgroundColor=none;fontColor=default;strokeColor=#A8201A;" edge="1" parent="1" source="Z7bshn5V9QT-2ZummmTz-4" target="Z7bshn5V9QT-2ZummmTz-71">
          <mxGeometry relative="1" as="geometry">
            <mxPoint x="475" y="580" as="sourcePoint" />
            <mxPoint x="475" y="660" as="targetPoint" />
          </mxGeometry>
        </mxCell>
        <mxCell id="Z7bshn5V9QT-2ZummmTz-71" value="CS3 - Select watch option selected" style="swimlane;fontStyle=0;childLayout=stackLayout;horizontal=1;startSize=30;horizontalStack=0;resizeParent=1;resizeParentMax=0;resizeLast=0;collapsible=1;marginBottom=0;whiteSpace=wrap;html=1;swimlaneFillColor=default;fillColor=#FAE5C7;strokeColor=#0F8B8D;rounded=1;labelBackgroundColor=none;fontColor=#143642;" vertex="1" parent="1">
          <mxGeometry x="425" y="900" width="140" height="90" as="geometry">
            <mxRectangle x="445" y="600" width="60" height="30" as="alternateBounds" />
          </mxGeometry>
        </mxCell>
        <mxCell id="Z7bshn5V9QT-2ZummmTz-72" value="Touch the watch" style="text;strokeColor=none;fillColor=none;align=left;verticalAlign=middle;spacingLeft=4;spacingRight=4;overflow=hidden;points=[[0,0.5],[1,0.5]];portConstraint=eastwest;rotatable=0;whiteSpace=wrap;html=1;rounded=1;labelBackgroundColor=none;fontColor=#143642;" vertex="1" parent="Z7bshn5V9QT-2ZummmTz-71">
          <mxGeometry y="30" width="140" height="30" as="geometry" />
        </mxCell>
        <mxCell id="Z7bshn5V9QT-2ZummmTz-73" value="Request watch on mobile app" style="text;strokeColor=none;fillColor=none;align=left;verticalAlign=middle;spacingLeft=4;spacingRight=4;overflow=hidden;points=[[0,0.5],[1,0.5]];portConstraint=eastwest;rotatable=0;whiteSpace=wrap;html=1;rounded=1;labelBackgroundColor=none;fontColor=#143642;" vertex="1" parent="Z7bshn5V9QT-2ZummmTz-71">
          <mxGeometry y="60" width="140" height="30" as="geometry" />
        </mxCell>
        <mxCell id="Z7bshn5V9QT-2ZummmTz-75" value="" style="edgeStyle=orthogonalEdgeStyle;rounded=1;orthogonalLoop=1;jettySize=auto;html=1;labelBackgroundColor=none;fontColor=default;strokeColor=#A8201A;" edge="1" parent="1" source="Z7bshn5V9QT-2ZummmTz-6" target="Z7bshn5V9QT-2ZummmTz-77">
          <mxGeometry relative="1" as="geometry">
            <mxPoint x="475" y="710" as="sourcePoint" />
            <mxPoint x="475" y="790" as="targetPoint" />
          </mxGeometry>
        </mxCell>
        <mxCell id="Z7bshn5V9QT-2ZummmTz-77" value="CS4 - Valid Selection" style="swimlane;fontStyle=0;childLayout=stackLayout;horizontal=1;startSize=30;horizontalStack=0;resizeParent=1;resizeParentMax=0;resizeLast=0;collapsible=1;marginBottom=0;whiteSpace=wrap;html=1;fillColor=#FAE5C7;strokeColor=#0F8B8D;swimlaneFillColor=default;rounded=1;labelBackgroundColor=none;fontColor=#143642;" vertex="1" parent="1">
          <mxGeometry x="425" y="1170" width="140" height="60" as="geometry">
            <mxRectangle x="445" y="730" width="60" height="30" as="alternateBounds" />
          </mxGeometry>
        </mxCell>
        <mxCell id="Z7bshn5V9QT-2ZummmTz-78" value="Watch is in inventory" style="text;strokeColor=none;fillColor=none;align=left;verticalAlign=middle;spacingLeft=4;spacingRight=4;overflow=hidden;points=[[0,0.5],[1,0.5]];portConstraint=eastwest;rotatable=0;whiteSpace=wrap;html=1;rounded=1;labelBackgroundColor=none;fontColor=#143642;" vertex="1" parent="Z7bshn5V9QT-2ZummmTz-77">
          <mxGeometry y="30" width="140" height="30" as="geometry" />
        </mxCell>
        <mxCell id="Z7bshn5V9QT-2ZummmTz-81" value="" style="edgeStyle=orthogonalEdgeStyle;rounded=1;orthogonalLoop=1;jettySize=auto;html=1;labelBackgroundColor=none;fontColor=default;strokeColor=#A8201A;" edge="1" parent="1" source="Z7bshn5V9QT-2ZummmTz-8" target="Z7bshn5V9QT-2ZummmTz-83">
          <mxGeometry relative="1" as="geometry">
            <mxPoint x="475" y="840" as="sourcePoint" />
            <mxPoint x="475" y="920" as="targetPoint" />
          </mxGeometry>
        </mxCell>
        <mxCell id="Z7bshn5V9QT-2ZummmTz-83" value="CS5 - Receive ACK from RPI" style="swimlane;fontStyle=0;childLayout=stackLayout;horizontal=1;startSize=30;horizontalStack=0;resizeParent=1;resizeParentMax=0;resizeLast=0;collapsible=1;marginBottom=0;whiteSpace=wrap;html=1;swimlaneFillColor=default;fillColor=#FAE5C7;strokeColor=#0F8B8D;rounded=1;labelBackgroundColor=none;fontColor=#143642;arcSize=24;" vertex="1" parent="1">
          <mxGeometry x="420" y="1500" width="140" height="60" as="geometry">
            <mxRectangle x="445" y="860" width="60" height="30" as="alternateBounds" />
          </mxGeometry>
        </mxCell>
        <mxCell id="Z7bshn5V9QT-2ZummmTz-84" value="ACK received from RPI" style="text;strokeColor=none;fillColor=none;align=left;verticalAlign=middle;spacingLeft=4;spacingRight=4;overflow=hidden;points=[[0,0.5],[1,0.5]];portConstraint=eastwest;rotatable=0;whiteSpace=wrap;html=1;rounded=1;labelBackgroundColor=none;fontColor=#143642;" vertex="1" parent="Z7bshn5V9QT-2ZummmTz-83">
          <mxGeometry y="30" width="140" height="30" as="geometry" />
        </mxCell>
        <mxCell id="Z7bshn5V9QT-2ZummmTz-87" value="" style="edgeStyle=orthogonalEdgeStyle;rounded=1;orthogonalLoop=1;jettySize=auto;html=1;labelBackgroundColor=none;fontColor=default;strokeColor=#A8201A;" edge="1" parent="1" source="Z7bshn5V9QT-2ZummmTz-10" target="Z7bshn5V9QT-2ZummmTz-89">
          <mxGeometry relative="1" as="geometry">
            <mxPoint x="475" y="970" as="sourcePoint" />
            <mxPoint x="475" y="1050" as="targetPoint" />
          </mxGeometry>
        </mxCell>
        <mxCell id="Z7bshn5V9QT-2ZummmTz-89" value="CS6 - Receive DONE from RPI" style="swimlane;fontStyle=0;childLayout=stackLayout;horizontal=1;startSize=30;horizontalStack=0;resizeParent=1;resizeParentMax=0;resizeLast=0;collapsible=1;marginBottom=0;whiteSpace=wrap;html=1;fillColor=#FAE5C7;strokeColor=#0F8B8D;swimlaneFillColor=default;rounded=1;labelBackgroundColor=none;fontColor=#143642;" vertex="1" parent="1">
          <mxGeometry x="405" y="1780" width="140" height="60" as="geometry">
            <mxRectangle x="445" y="1580" width="60" height="30" as="alternateBounds" />
          </mxGeometry>
        </mxCell>
        <mxCell id="Z7bshn5V9QT-2ZummmTz-90" value="Receive DONE from RPI" style="text;strokeColor=none;fillColor=none;align=left;verticalAlign=middle;spacingLeft=4;spacingRight=4;overflow=hidden;points=[[0,0.5],[1,0.5]];portConstraint=eastwest;rotatable=0;whiteSpace=wrap;html=1;rounded=1;labelBackgroundColor=none;fontColor=#143642;" vertex="1" parent="Z7bshn5V9QT-2ZummmTz-89">
          <mxGeometry y="30" width="140" height="30" as="geometry" />
        </mxCell>
        <mxCell id="Z7bshn5V9QT-2ZummmTz-93" value="" style="edgeStyle=orthogonalEdgeStyle;rounded=1;orthogonalLoop=1;jettySize=auto;html=1;labelBackgroundColor=none;strokeColor=#A8201A;fontColor=default;" edge="1" parent="1" source="Z7bshn5V9QT-2ZummmTz-17" target="Z7bshn5V9QT-2ZummmTz-95">
          <mxGeometry relative="1" as="geometry">
            <mxPoint x="705" y="440" as="sourcePoint" />
            <mxPoint x="705" y="520" as="targetPoint" />
          </mxGeometry>
        </mxCell>
        <mxCell id="Z7bshn5V9QT-2ZummmTz-95" value="CS11 - Lock machine" style="swimlane;fontStyle=0;childLayout=stackLayout;horizontal=1;startSize=30;horizontalStack=0;resizeParent=1;resizeParentMax=0;resizeLast=0;collapsible=1;marginBottom=0;whiteSpace=wrap;html=1;fillColor=#FAE5C7;strokeColor=#0F8B8D;swimlaneFillColor=default;rounded=1;labelBackgroundColor=none;fontColor=#143642;" vertex="1" parent="1">
          <mxGeometry x="635" y="470" width="140" height="60" as="geometry">
            <mxRectangle x="675" y="470" width="60" height="30" as="alternateBounds" />
          </mxGeometry>
        </mxCell>
        <mxCell id="Z7bshn5V9QT-2ZummmTz-96" value="Mobiel app verification" style="text;strokeColor=none;fillColor=none;align=left;verticalAlign=middle;spacingLeft=4;spacingRight=4;overflow=hidden;points=[[0,0.5],[1,0.5]];portConstraint=eastwest;rotatable=0;whiteSpace=wrap;html=1;rounded=1;labelBackgroundColor=none;fontColor=#143642;" vertex="1" parent="Z7bshn5V9QT-2ZummmTz-95">
          <mxGeometry y="30" width="140" height="30" as="geometry" />
        </mxCell>
        <mxCell id="Z7bshn5V9QT-2ZummmTz-101" value="CS9 - Retry counter" style="swimlane;fontStyle=0;childLayout=stackLayout;horizontal=1;startSize=30;horizontalStack=0;resizeParent=1;resizeParentMax=0;resizeLast=0;collapsible=1;marginBottom=0;whiteSpace=wrap;html=1;fillColor=#FAE5C7;strokeColor=#0F8B8D;swimlaneFillColor=default;rounded=1;labelBackgroundColor=none;fontColor=#143642;" vertex="1" parent="1">
          <mxGeometry x="520" y="300" width="140" height="60" as="geometry">
            <mxRectangle x="570" y="340" width="60" height="30" as="alternateBounds" />
          </mxGeometry>
        </mxCell>
        <mxCell id="Z7bshn5V9QT-2ZummmTz-102" value="Failed counter &amp;lt; 5 times" style="text;strokeColor=none;fillColor=none;align=left;verticalAlign=middle;spacingLeft=4;spacingRight=4;overflow=hidden;points=[[0,0.5],[1,0.5]];portConstraint=eastwest;rotatable=0;whiteSpace=wrap;html=1;rounded=1;labelBackgroundColor=none;fontColor=#143642;" vertex="1" parent="Z7bshn5V9QT-2ZummmTz-101">
          <mxGeometry y="30" width="140" height="30" as="geometry" />
        </mxCell>
        <mxCell id="Z7bshn5V9QT-2ZummmTz-106" value="" style="edgeStyle=orthogonalEdgeStyle;rounded=1;orthogonalLoop=1;jettySize=auto;html=1;labelBackgroundColor=none;fontColor=default;strokeColor=#A8201A;" edge="1" parent="1" source="Z7bshn5V9QT-2ZummmTz-2" target="Z7bshn5V9QT-2ZummmTz-108">
          <mxGeometry relative="1" as="geometry">
            <mxPoint x="550" y="410" as="sourcePoint" />
            <mxPoint x="630" y="410" as="targetPoint" />
            <Array as="points">
              <mxPoint x="460" y="530" />
            </Array>
          </mxGeometry>
        </mxCell>
        <mxCell id="Z7bshn5V9QT-2ZummmTz-108" value="CS8 - Failed Authentication" style="swimlane;fontStyle=0;childLayout=stackLayout;horizontal=1;startSize=30;horizontalStack=0;resizeParent=1;resizeParentMax=0;resizeLast=0;collapsible=1;marginBottom=0;whiteSpace=wrap;html=1;fillColor=#FAE5C7;strokeColor=#0F8B8D;swimlaneFillColor=default;rounded=1;labelBackgroundColor=none;fontColor=#143642;" vertex="1" parent="1">
          <mxGeometry x="390" y="400" width="140" height="90" as="geometry">
            <mxRectangle x="560" y="395" width="60" height="30" as="alternateBounds" />
          </mxGeometry>
        </mxCell>
        <mxCell id="Z7bshn5V9QT-2ZummmTz-109" value="Fingerprint Sensor failed" style="text;strokeColor=none;fillColor=none;align=left;verticalAlign=middle;spacingLeft=4;spacingRight=4;overflow=hidden;points=[[0,0.5],[1,0.5]];portConstraint=eastwest;rotatable=0;whiteSpace=wrap;html=1;rounded=1;labelBackgroundColor=none;fontColor=#143642;" vertex="1" parent="Z7bshn5V9QT-2ZummmTz-108">
          <mxGeometry y="30" width="140" height="30" as="geometry" />
        </mxCell>
        <mxCell id="Z7bshn5V9QT-2ZummmTz-110" value="Fingerprint failed" style="text;strokeColor=none;fillColor=none;align=left;verticalAlign=middle;spacingLeft=4;spacingRight=4;overflow=hidden;points=[[0,0.5],[1,0.5]];portConstraint=eastwest;rotatable=0;whiteSpace=wrap;html=1;rounded=1;labelBackgroundColor=none;fontColor=#143642;" vertex="1" parent="Z7bshn5V9QT-2ZummmTz-108">
          <mxGeometry y="60" width="140" height="30" as="geometry" />
        </mxCell>
        <mxCell id="Z7bshn5V9QT-2ZummmTz-112" value="" style="edgeStyle=orthogonalEdgeStyle;rounded=1;orthogonalLoop=1;jettySize=auto;html=1;labelBackgroundColor=none;fontColor=default;strokeColor=#A8201A;" edge="1" parent="1" source="Z7bshn5V9QT-2ZummmTz-1" target="Z7bshn5V9QT-2ZummmTz-114">
          <mxGeometry relative="1" as="geometry">
            <mxPoint x="320" y="410" as="sourcePoint" />
            <mxPoint x="400" y="410" as="targetPoint" />
          </mxGeometry>
        </mxCell>
        <mxCell id="Z7bshn5V9QT-2ZummmTz-113" value="" style="edgeLabel;html=1;align=center;verticalAlign=middle;resizable=0;points=[];labelBackgroundColor=none;rounded=1;fontColor=#143642;" vertex="1" connectable="0" parent="Z7bshn5V9QT-2ZummmTz-112">
          <mxGeometry x="-0.144" relative="1" as="geometry">
            <mxPoint as="offset" />
          </mxGeometry>
        </mxCell>
        <mxCell id="Z7bshn5V9QT-2ZummmTz-114" value="CS1 - Wakeup by screen" style="swimlane;fontStyle=0;childLayout=stackLayout;horizontal=1;startSize=30;horizontalStack=0;resizeParent=1;resizeParentMax=0;resizeLast=0;collapsible=1;marginBottom=0;whiteSpace=wrap;html=1;fillColor=#FAE5C7;strokeColor=#0F8B8D;swimlaneFillColor=default;rounded=1;labelBackgroundColor=none;fontColor=#143642;" vertex="1" parent="1">
          <mxGeometry x="120" y="380" width="140" height="60" as="geometry">
            <mxRectangle x="330" y="395" width="60" height="30" as="alternateBounds" />
          </mxGeometry>
        </mxCell>
        <mxCell id="Z7bshn5V9QT-2ZummmTz-115" value="Screen tap detected" style="text;strokeColor=none;fillColor=none;align=left;verticalAlign=middle;spacingLeft=4;spacingRight=4;overflow=hidden;points=[[0,0.5],[1,0.5]];portConstraint=eastwest;rotatable=0;whiteSpace=wrap;html=1;rounded=1;labelBackgroundColor=none;fontColor=#143642;" vertex="1" parent="Z7bshn5V9QT-2ZummmTz-114">
          <mxGeometry y="30" width="140" height="30" as="geometry" />
        </mxCell>
        <mxCell id="Z7bshn5V9QT-2ZummmTz-118" value="" style="edgeStyle=orthogonalEdgeStyle;rounded=1;orthogonalLoop=1;jettySize=auto;html=1;entryX=0.452;entryY=1.011;entryDx=0;entryDy=0;entryPerimeter=0;labelBackgroundColor=none;fontColor=default;strokeColor=#A8201A;" edge="1" parent="1" source="Z7bshn5V9QT-2ZummmTz-12" target="Z7bshn5V9QT-2ZummmTz-120">
          <mxGeometry relative="1" as="geometry">
            <mxPoint x="380" y="1075" as="sourcePoint" />
            <mxPoint x="254" y="441" as="targetPoint" />
          </mxGeometry>
        </mxCell>
        <mxCell id="Z7bshn5V9QT-2ZummmTz-120" value="CS7 - Confirmation Pop up closed" style="swimlane;fontStyle=0;childLayout=stackLayout;horizontal=1;startSize=30;horizontalStack=0;resizeParent=1;resizeParentMax=0;resizeLast=0;collapsible=1;marginBottom=0;whiteSpace=wrap;html=1;swimlaneFillColor=default;fillColor=#FAE5C7;strokeColor=#0F8B8D;rounded=1;labelBackgroundColor=none;fontColor=#143642;" vertex="1" parent="1">
          <mxGeometry x="-90" y="685" width="140" height="90" as="geometry">
            <mxRectangle x="-50" y="680" width="60" height="30" as="alternateBounds" />
          </mxGeometry>
        </mxCell>
        <mxCell id="Z7bshn5V9QT-2ZummmTz-121" value="Watch picked up" style="text;strokeColor=none;fillColor=none;align=left;verticalAlign=middle;spacingLeft=4;spacingRight=4;overflow=hidden;points=[[0,0.5],[1,0.5]];portConstraint=eastwest;rotatable=0;whiteSpace=wrap;html=1;rounded=1;labelBackgroundColor=none;fontColor=#143642;" vertex="1" parent="Z7bshn5V9QT-2ZummmTz-120">
          <mxGeometry y="30" width="140" height="30" as="geometry" />
        </mxCell>
        <mxCell id="Z7bshn5V9QT-2ZummmTz-122" value="Done touched on pop up" style="text;strokeColor=none;fillColor=none;align=left;verticalAlign=middle;spacingLeft=4;spacingRight=4;overflow=hidden;points=[[0,0.5],[1,0.5]];portConstraint=eastwest;rotatable=0;whiteSpace=wrap;html=1;rounded=1;labelBackgroundColor=none;fontColor=#143642;" vertex="1" parent="Z7bshn5V9QT-2ZummmTz-120">
          <mxGeometry y="60" width="140" height="30" as="geometry" />
        </mxCell>
        <mxCell id="Z7bshn5V9QT-2ZummmTz-124" style="edgeStyle=orthogonalEdgeStyle;rounded=1;orthogonalLoop=1;jettySize=auto;html=1;entryX=0.417;entryY=1.033;entryDx=0;entryDy=0;entryPerimeter=0;labelBackgroundColor=none;strokeColor=#A8201A;fontColor=default;" edge="1" parent="1" source="Z7bshn5V9QT-2ZummmTz-120" target="Z7bshn5V9QT-2ZummmTz-1">
          <mxGeometry relative="1" as="geometry" />
        </mxCell>
        <mxCell id="Z7bshn5V9QT-2ZummmTz-133" value="" style="edgeStyle=orthogonalEdgeStyle;rounded=0;orthogonalLoop=1;jettySize=auto;html=1;strokeColor=#A8201A;fontColor=#143642;fillColor=#FAE5C7;" edge="1" parent="1" source="Z7bshn5V9QT-2ZummmTz-129" target="Z7bshn5V9QT-2ZummmTz-132">
          <mxGeometry relative="1" as="geometry" />
        </mxCell>
        <mxCell id="Z7bshn5V9QT-2ZummmTz-129" value="CS11 - Invalid Selection" style="swimlane;fontStyle=0;childLayout=stackLayout;horizontal=1;startSize=30;horizontalStack=0;resizeParent=1;resizeParentMax=0;resizeLast=0;collapsible=1;marginBottom=0;whiteSpace=wrap;html=1;fillColor=#FAE5C7;strokeColor=#0F8B8D;swimlaneFillColor=default;rounded=1;labelBackgroundColor=none;fontColor=#143642;" vertex="1" parent="1">
          <mxGeometry x="650" y="1170" width="140" height="60" as="geometry">
            <mxRectangle x="445" y="730" width="60" height="30" as="alternateBounds" />
          </mxGeometry>
        </mxCell>
        <mxCell id="Z7bshn5V9QT-2ZummmTz-130" value="Watch is not in inventory" style="text;strokeColor=none;fillColor=none;align=left;verticalAlign=middle;spacingLeft=4;spacingRight=4;overflow=hidden;points=[[0,0.5],[1,0.5]];portConstraint=eastwest;rotatable=0;whiteSpace=wrap;html=1;rounded=1;labelBackgroundColor=none;fontColor=#143642;" vertex="1" parent="Z7bshn5V9QT-2ZummmTz-129">
          <mxGeometry y="30" width="140" height="30" as="geometry" />
        </mxCell>
        <mxCell id="Z7bshn5V9QT-2ZummmTz-137" style="edgeStyle=orthogonalEdgeStyle;rounded=0;orthogonalLoop=1;jettySize=auto;html=1;entryX=0.5;entryY=1;entryDx=0;entryDy=0;strokeColor=#A8201A;fontColor=#143642;fillColor=#FAE5C7;" edge="1" parent="1" source="Z7bshn5V9QT-2ZummmTz-132" target="Z7bshn5V9QT-2ZummmTz-135">
          <mxGeometry relative="1" as="geometry" />
        </mxCell>
        <mxCell id="Z7bshn5V9QT-2ZummmTz-132" value="&lt;div&gt;WATCH_SELECT_REQ_FAILED&lt;/div&gt;S10" style="rounded=1;whiteSpace=wrap;html=1;labelBackgroundColor=none;fontStyle=1;fillColor=#FAE5C7;strokeColor=#0F8B8D;fontColor=#143642;" vertex="1" parent="1">
          <mxGeometry x="625" y="1340" width="190" height="50" as="geometry" />
        </mxCell>
        <mxCell id="Z7bshn5V9QT-2ZummmTz-138" style="edgeStyle=orthogonalEdgeStyle;rounded=0;orthogonalLoop=1;jettySize=auto;html=1;entryX=0.75;entryY=0;entryDx=0;entryDy=0;strokeColor=#A8201A;fontColor=#143642;fillColor=#FAE5C7;" edge="1" parent="1" source="Z7bshn5V9QT-2ZummmTz-135" target="Z7bshn5V9QT-2ZummmTz-6">
          <mxGeometry relative="1" as="geometry">
            <Array as="points">
              <mxPoint x="910" y="1040" />
              <mxPoint x="538" y="1040" />
            </Array>
          </mxGeometry>
        </mxCell>
        <mxCell id="Z7bshn5V9QT-2ZummmTz-135" value="CS12 - Pop up cancel" style="swimlane;fontStyle=0;childLayout=stackLayout;horizontal=1;startSize=30;horizontalStack=0;resizeParent=1;resizeParentMax=0;resizeLast=0;collapsible=1;marginBottom=0;whiteSpace=wrap;html=1;fillColor=#FAE5C7;strokeColor=#0F8B8D;swimlaneFillColor=default;rounded=1;labelBackgroundColor=none;fontColor=#143642;" vertex="1" parent="1">
          <mxGeometry x="840" y="1180" width="140" height="60" as="geometry">
            <mxRectangle x="445" y="730" width="60" height="30" as="alternateBounds" />
          </mxGeometry>
        </mxCell>
        <mxCell id="Z7bshn5V9QT-2ZummmTz-136" value="Pop up cancel" style="text;strokeColor=none;fillColor=none;align=left;verticalAlign=middle;spacingLeft=4;spacingRight=4;overflow=hidden;points=[[0,0.5],[1,0.5]];portConstraint=eastwest;rotatable=0;whiteSpace=wrap;html=1;rounded=1;labelBackgroundColor=none;fontColor=#143642;" vertex="1" parent="Z7bshn5V9QT-2ZummmTz-135">
          <mxGeometry y="30" width="140" height="30" as="geometry" />
        </mxCell>
        <mxCell id="Z7bshn5V9QT-2ZummmTz-142" value="" style="edgeStyle=orthogonalEdgeStyle;rounded=0;orthogonalLoop=1;jettySize=auto;html=1;strokeColor=#A8201A;fontColor=#143642;fillColor=#FAE5C7;" edge="1" parent="1" source="Z7bshn5V9QT-2ZummmTz-139" target="Z7bshn5V9QT-2ZummmTz-132">
          <mxGeometry relative="1" as="geometry" />
        </mxCell>
        <mxCell id="Z7bshn5V9QT-2ZummmTz-139" value="CS13 - Receive ACK from RPI failed" style="swimlane;fontStyle=0;childLayout=stackLayout;horizontal=1;startSize=30;horizontalStack=0;resizeParent=1;resizeParentMax=0;resizeLast=0;collapsible=1;marginBottom=0;whiteSpace=wrap;html=1;swimlaneFillColor=default;fillColor=#FAE5C7;strokeColor=#0F8B8D;rounded=1;labelBackgroundColor=none;fontColor=#143642;arcSize=24;" vertex="1" parent="1">
          <mxGeometry x="620" y="1490" width="140" height="60" as="geometry">
            <mxRectangle x="445" y="860" width="60" height="30" as="alternateBounds" />
          </mxGeometry>
        </mxCell>
        <mxCell id="Z7bshn5V9QT-2ZummmTz-140" value="ACK received from RPI" style="text;strokeColor=none;fillColor=none;align=left;verticalAlign=middle;spacingLeft=4;spacingRight=4;overflow=hidden;points=[[0,0.5],[1,0.5]];portConstraint=eastwest;rotatable=0;whiteSpace=wrap;html=1;rounded=1;labelBackgroundColor=none;fontColor=#143642;" vertex="1" parent="Z7bshn5V9QT-2ZummmTz-139">
          <mxGeometry y="30" width="140" height="30" as="geometry" />
        </mxCell>
      </root>
    </mxGraphModel>
  </diagram>
</mxfile>
